<svg xmlns="http://www.w3.org/2000/svg" width="1600" height="900" viewBox="0 0 1600 900">
  <defs>
    <linearGradient id="bg" x1="0" y1="0" x2="1" y2="1">
      <stop offset="0" stop-color="#0a1020"/>
      <stop offset="1" stop-color="#1f2a44"/>
    </linearGradient>
    <pattern id="dots" width="42" height="42" patternUnits="userSpaceOnUse">
      <circle cx="2" cy="2" r="1.4" fill="#60a5fa" opacity="0.22"/>
    </pattern>
  </defs>
  <rect width="1600" height="900" fill="url(#bg)"/>
  <rect width="1600" height="900" fill="url(#dots)"/>
  <g>
    <circle cx="1046" cy="707" r="100" fill="#60a5fa" opacity="0.06"/>
    <circle cx="705" cy="208" r="130" fill="#60a5fa" opacity="0.12"/>
    <circle cx="374" cy="690" r="142" fill="#60a5fa" opacity="0.10"/>
    <circle cx="1515" cy="504" r="83" fill="#60a5fa" opacity="0.09"/>
    <circle cx="1190" cy="355" r="72" fill="#60a5fa" opacity="0.10"/>
  </g>
  <g>
    <path d="M-50 398 C 509 374, 1324 403, 1650 441" stroke="#60a5fa" stroke-width="1.8" fill="none" opacity="0.15"/>
    <path d="M-50 593 C 621 455, 925 306, 1650 748" stroke="#60a5fa" stroke-width="1.1" fill="none" opacity="0.27"/>
    <path d="M-50 980 C 703 1061, 1194 741, 1650 738" stroke="#60a5fa" stroke-width="1.1" fill="none" opacity="0.23"/>
    <path d="M-50 109 C 356 84, 894 68, 1650 280" stroke="#60a5fa" stroke-width="2.0" fill="none" opacity="0.23"/>
    <path d="M-50 450 C 558 294, 1100 798, 1650 698" stroke="#60a5fa" stroke-width="2.1" fill="none" opacity="0.31"/>
    <path d="M-50 247 C 350 -54, 1019 433, 1650 197" stroke="#60a5fa" stroke-width="1.6" fill="none" opacity="0.31"/>
    <path d="M-50 954 C 647 751, 880 1241, 1650 939" stroke="#60a5fa" stroke-width="1.6" fill="none" opacity="0.35"/>
  </g>
</svg>
