<svg xmlns="http://www.w3.org/2000/svg" width="1600" height="900" viewBox="0 0 1600 900">
  <defs>
    <linearGradient id="bg" x1="0" y1="0" x2="1" y2="1">
      <stop offset="0" stop-color="#0a1428"/>
      <stop offset="1" stop-color="#1a2f5c"/>
    </linearGradient>
    <pattern id="dots" width="42" height="42" patternUnits="userSpaceOnUse">
      <circle cx="2" cy="2" r="1.4" fill="#818cf8" opacity="0.22"/>
    </pattern>
  </defs>
  <rect width="1600" height="900" fill="url(#bg)"/>
  <rect width="1600" height="900" fill="url(#dots)"/>
  <g>
    <circle cx="686" cy="793" r="158" fill="#818cf8" opacity="0.11"/>
    <circle cx="813" cy="225" r="193" fill="#818cf8" opacity="0.13"/>
    <circle cx="382" cy="558" r="172" fill="#818cf8" opacity="0.11"/>
    <circle cx="1245" cy="699" r="119" fill="#818cf8" opacity="0.10"/>
    <circle cx="1118" cy="193" r="64" fill="#818cf8" opacity="0.06"/>
  </g>
  <g>
    <path d="M-50 585 C 596 895, 1262 753, 1650 796" stroke="#818cf8" stroke-width="1.7" fill="none" opacity="0.11"/>
    <path d="M-50 938 C 552 667, 1312 916, 1650 811" stroke="#818cf8" stroke-width="1.9" fill="none" opacity="0.24"/>
    <path d="M-50 -86 C 344 206, 1014 100, 1650 -256" stroke="#818cf8" stroke-width="1.2" fill="none" opacity="0.30"/>
    <path d="M-50 579 C 301 839, 881 376, 1650 437" stroke="#818cf8" stroke-width="2.4" fill="none" opacity="0.35"/>
    <path d="M-50 218 C 702 343, 1139 12, 1650 439" stroke="#818cf8" stroke-width="2.5" fill="none" opacity="0.27"/>
    <path d="M-50 883 C 383 649, 1053 635, 1650 666" stroke="#818cf8" stroke-width="2.0" fill="none" opacity="0.18"/>
    <path d="M-50 -96 C 565 -229, 1042 127, 1650 -106" stroke="#818cf8" stroke-width="1.8" fill="none" opacity="0.18"/>
  </g>
</svg>
