<svg xmlns="http://www.w3.org/2000/svg" width="1600" height="900" viewBox="0 0 1600 900">
  <defs>
    <linearGradient id="bg" x1="0" y1="0" x2="1" y2="1">
      <stop offset="0" stop-color="#120a28"/>
      <stop offset="1" stop-color="#3a1a4e"/>
    </linearGradient>
    <pattern id="dots" width="42" height="42" patternUnits="userSpaceOnUse">
      <circle cx="2" cy="2" r="1.4" fill="#c084fc" opacity="0.22"/>
    </pattern>
  </defs>
  <rect width="1600" height="900" fill="url(#bg)"/>
  <rect width="1600" height="900" fill="url(#dots)"/>
  <g>
    <circle cx="776" cy="740" r="146" fill="#c084fc" opacity="0.13"/>
    <circle cx="905" cy="806" r="117" fill="#c084fc" opacity="0.11"/>
    <circle cx="783" cy="502" r="112" fill="#c084fc" opacity="0.12"/>
    <circle cx="1245" cy="566" r="153" fill="#c084fc" opacity="0.05"/>
    <circle cx="1192" cy="335" r="75" fill="#c084fc" opacity="0.07"/>
  </g>
  <g>
    <path d="M-50 773 C 635 606, 1113 423, 1650 854" stroke="#c084fc" stroke-width="2.2" fill="none" opacity="0.22"/>
    <path d="M-50 310 C 610 522, 1011 471, 1650 267" stroke="#c084fc" stroke-width="2.1" fill="none" opacity="0.23"/>
    <path d="M-50 112 C 506 -52, 1266 325, 1650 205" stroke="#c084fc" stroke-width="1.5" fill="none" opacity="0.31"/>
    <path d="M-50 2 C 624 -36, 1266 -282, 1650 -149" stroke="#c084fc" stroke-width="1.5" fill="none" opacity="0.26"/>
    <path d="M-50 947 C 523 1055, 976 849, 1650 1163" stroke="#c084fc" stroke-width="1.8" fill="none" opacity="0.33"/>
    <path d="M-50 609 C 575 942, 1267 279, 1650 540" stroke="#c084fc" stroke-width="1.5" fill="none" opacity="0.25"/>
    <path d="M-50 548 C 283 566, 1302 280, 1650 629" stroke="#c084fc" stroke-width="1.3" fill="none" opacity="0.18"/>
  </g>
</svg>
